<svg width="16" height="17" viewBox="0 0 16 17" fill="none" xmlns="http://www.w3.org/2000/svg">
<g clip-path="url(#clip0_607_78765)">
<path d="M14.6667 12.2148V14.2148C14.6675 14.4005 14.6294 14.5842 14.555 14.7544C14.4807 14.9245 14.3716 15.0772 14.2348 15.2027C14.0979 15.3282 13.9364 15.4238 13.7605 15.4833C13.5847 15.5428 13.3983 15.5648 13.2134 15.5481C11.1619 15.3252 9.19137 14.6242 7.46004 13.5015C5.84926 12.4779 4.48359 11.1122 3.46004 9.50147C2.33336 7.76227 1.6322 5.78213 1.41337 3.72146C1.39671 3.53711 1.41862 3.3513 1.4777 3.17588C1.53679 3.00046 1.63175 2.83926 1.75655 2.70255C1.88134 2.56583 2.03324 2.4566 2.20256 2.38181C2.37189 2.30702 2.55493 2.26831 2.74004 2.26813H4.74004C5.06357 2.26495 5.37723 2.37952 5.62254 2.59049C5.86786 2.80146 6.02809 3.09443 6.07337 3.4148C6.15779 4.05484 6.31434 4.68328 6.54004 5.28813C6.62973 5.52675 6.64915 5.78607 6.59597 6.03538C6.5428 6.2847 6.41928 6.51354 6.24004 6.6948L5.39337 7.54146C6.34241 9.21049 7.72434 10.5924 9.39337 11.5415L10.24 10.6948C10.4213 10.5156 10.6501 10.392 10.8994 10.3389C11.1488 10.2857 11.4081 10.3051 11.6467 10.3948C12.2516 10.6205 12.88 10.777 13.52 10.8615C13.8439 10.9072 14.1396 11.0703 14.3511 11.3198C14.5625 11.5693 14.6748 11.8878 14.6667 12.2148Z" stroke="#7D7D7D" stroke-width="1.33879" stroke-linecap="round" stroke-linejoin="round"/>
</g>
<defs>
<clipPath id="clip0_607_78765">
<rect width="16" height="16" fill="white" transform="translate(0 0.93457)"/>
</clipPath>
</defs>
</svg>
