<svg width="16" height="16" viewBox="0 0 16 16" fill="none" xmlns="http://www.w3.org/2000/svg">
<path d="M14.6592 3.23052C15.181 2.70878 15.181 1.86287 14.6592 1.34113C14.1375 0.819394 13.2916 0.819394 12.7698 1.34113L8.00024 6.11073L3.23065 1.34113C2.70891 0.819394 1.863 0.819394 1.34126 1.34113C0.819516 1.86287 0.819516 2.70878 1.34126 3.23052L6.11085 8.00012L1.34126 12.7697C0.819516 13.2914 0.819516 14.1374 1.34126 14.6591C1.863 15.1808 2.70891 15.1808 3.23065 14.6591L8.00024 9.8895L12.7698 14.6591C13.2916 15.1808 14.1375 15.1808 14.6592 14.6591C15.181 14.1374 15.181 13.2914 14.6592 12.7697L9.88963 8.00012L14.6592 3.23052Z" fill="#7D7D7D"/>
</svg>
